<svg id="Layer_1" enable-background="new 0 0 512 512" height="512" viewBox="0 0 512 512" width="512" xmlns="http://www.w3.org/2000/svg"><g><path d="m466.473 392.449c21.92-36.697 34.529-79.599 34.529-125.451 0-135.311-109.691-245.003-245.002-245.003s-245.002 109.691-245.002 245.003c0 45.852 12.609 88.754 34.529 125.451z" fill="#ffdd40"/><path d="m436.485 432.655c11.563-12.594 21.829-26.399 30.579-41.206v-347.949c0-24.024-19.476-43.5-43.5-43.5h-335.129c-24.024 0-43.5 19.475-43.5 43.5v347.949c8.75 14.808 19.016 28.612 30.579 41.206z" fill="#167cc1"/><path d="m167.631 68.573c-3.324-3.313-1.222-6.327.043-7.632.48-.496.754-1.151.754-1.841v-19.264c0-.708-.301-1.375-.797-1.88-2.406-2.447-1.626-4.961-.624-6.575.662-1.066.51-2.463-.409-3.318-12.033-11.2-3.941-22.194.012-26.337.462-.485.692-1.103.708-1.726h-78.883c-24.024 0-43.5 19.475-43.5 43.5v347.949c8.75 14.808 19.016 28.612 30.579 41.206h92.913v-362.204c0-.706-.296-1.379-.796-1.878z" fill="#0e62a8"/><path d="m74.577 431.655c44.82 49.355 109.502 80.345 181.423 80.345s136.603-30.991 181.423-80.345v-107.313l-362.846-194.085z" fill="#e9efff"/><path d="m168.427 180.457-93.851-50.2v301.398c30.442 33.522 70.054 58.557 114.866 71.179-21.981-25.169-21.016-55.713-21.016-55.713v-266.664z" fill="#d3dcfb"/><path d="m293.885 384.779h-75.77c-15.272 0-27.766 12.495-27.766 27.766 0 15.271 12.494 27.766 27.766 27.766h75.77c15.271 0 27.766-12.495 27.766-27.766 0-15.272-12.495-27.766-27.766-27.766z" fill="#49d88b"/><path d="m255.322 412.544c0-15.271 12.494-27.766 27.766-27.766h-64.973c-15.271 0-27.766 12.494-27.766 27.766s12.494 27.766 27.766 27.766h64.973c-15.271.001-27.766-12.494-27.766-27.766z" fill="#38c674"/><g><path d="m274.942 479.979h-37.885c-4.547 0-8.234-3.686-8.234-8.234s3.686-8.234 8.234-8.234h37.885c4.547 0 8.234 3.686 8.234 8.234s-3.686 8.234-8.234 8.234z" fill="#bec8f7"/></g><path d="m74.577 132.453 362.846 194.085v-259.447h-362.846z" fill="#9bd8f9"/><path d="m74.577 132.453 93.851 50.2v-112.202c0-.707-.296-1.379-.797-1.878-.505-.503-.872-.998-1.148-1.483h-91.906z" fill="#73c3f9"/><ellipse cx="256" cy="307.024" fill="#1c2e7a" rx="93.213" ry="27.168"/><path d="m256 279.856c-1.568 0-3.126.012-4.675.035-1.512 1.788-2.386 2.829-2.386 2.829s55.741 23.266 4.077 51.45c.993.009 1.983.022 2.983.022 51.48 0 93.213-12.163 93.213-27.168.001-15.005-41.732-27.168-93.212-27.168z" fill="#142766"/><g><path d="m395.819 206.397-127.556-58.151c-7.79-3.551-16.736-3.551-24.526 0l-127.556 58.151c-11.828 5.392-11.828 22.195 0 27.588l48.866 22.277v-13.287c0-5.985 9.598-12.356 25.674-17.042 36.025-10.5 94.551-10.495 130.559 0 16.076 4.686 25.674 11.057 25.674 17.042v13.287l48.866-22.277c11.827-5.392 11.827-22.195-.001-27.588z" fill="#3c58a0"/></g><path d="m116.181 206.397c-11.828 5.392-11.828 22.195 0 27.588l48.865 22.277v-13.287c0-5.985 9.598-12.356 25.674-17.042 16.141-4.705 36.802-7.293 57.929-7.781 3.847-1.638 7.351-2.345 7.351-2.345-51.452-27.316-12.263-67.561-12.263-67.561z" fill="#2a428c"/><path d="m256 215.807c-51.48 0-93.213 12.163-93.213 27.168v64.049h.485c4.787-13.696 44.476-24.381 92.728-24.381s87.941 10.686 92.728 24.381h.485v-64.049c0-15.004-41.733-27.168-93.213-27.168z" fill="#2a428c"/><path d="m256 215.807c-51.48 0-93.213 12.163-93.213 27.168v64.049h.485c4.551-13.021 40.656-23.313 85.667-24.297v-.007c-10.388-4.004-10.178-14.622-10.178-14.622s0-29.91 0-39.371c0-9.46 17.239-12.92 17.239-12.92z" fill="#1c2e7a"/><g><path d="m311.718 346.378c-6.815 0-12.339-5.525-12.339-12.34v-34.941c0-6.815 5.524-12.34 12.339-12.34s12.34 5.525 12.34 12.34v34.941c0 6.815-5.524 12.34-12.34 12.34z" fill="#ffdd40"/></g><path d="m311.719 286.758c-6.815 0-12.34 5.524-12.34 12.34v31.105c0-6.815 5.524-12.34 12.34-12.34 6.815 0 12.34 5.525 12.34 12.34v-31.105c-.001-6.816-5.525-12.34-12.34-12.34z" fill="#ffb332"/><g><path d="m311.718 279.901c-5.111 0-9.255-4.144-9.255-9.255v-109.17c0-5.111 4.144-9.255 9.255-9.255s9.255 4.144 9.255 9.255v109.17c0 5.112-4.143 9.255-9.255 9.255z" fill="#ffdd40"/></g><ellipse cx="311.719" cy="285.603" fill="#ffb332" rx="17.506" ry="17.506" transform="matrix(.381 -.925 .925 .381 -71.04 465.141)"/><ellipse cx="314.463" cy="282.16" fill="#ffdd40" rx="8.024" ry="8.024" transform="matrix(.252 -.968 .968 .252 -37.752 515.496)"/><path d="m423.565 29.641h-335.129c-7.623 0-13.86 6.237-13.86 13.86v25.785h362.846v-25.786c.001-7.622-6.235-13.859-13.857-13.859z" fill="#2a428c"/><path d="m167.631 68.573c-3.324-3.313-1.222-6.327.043-7.632.48-.496.754-1.151.754-1.841v-19.264c0-.708-.301-1.375-.797-1.88-2.406-2.447-1.626-4.961-.624-6.575.331-.534.458-1.15.388-1.74h-78.959c-7.623 0-13.859 6.237-13.859 13.86v25.785h93.559c-.132-.26-.295-.504-.505-.713z" fill="#1c2e7a"/><g><path d="m119.528 49.464c0 5.962-4.833 10.795-10.795 10.795s-10.795-4.833-10.795-10.795 4.833-10.795 10.795-10.795c5.962-.001 10.795 4.833 10.795 10.795z" fill="#ff4155"/></g><g><path d="m149.376 49.464c0 5.962-4.833 10.795-10.795 10.795s-10.795-4.833-10.795-10.795 4.833-10.795 10.795-10.795c5.961-.001 10.795 4.833 10.795 10.795z" fill="#ffdd40"/></g><g><path d="m179.223 49.464c0 5.962-4.833 10.795-10.795 10.795s-10.795-4.833-10.795-10.795 4.833-10.795 10.795-10.795c5.961-.001 10.795 4.833 10.795 10.795z" fill="#38c674"/></g><g><path d="m322.992 57.697h-108.319c-4.547 0-8.234-3.686-8.234-8.234s3.686-8.234 8.234-8.234h108.319c4.547 0 8.234 3.686 8.234 8.234 0 4.549-3.687 8.234-8.234 8.234z" fill="#3c58a0"/></g><g><path d="m410.983 57.697h-9.386c-4.547 0-8.234-3.686-8.234-8.234s3.686-8.234 8.234-8.234h9.386c4.547 0 8.234 3.686 8.234 8.234-.001 4.549-3.687 8.234-8.234 8.234z" fill="#3c58a0"/></g><g><path d="m378.35 57.697h-9.386c-4.547 0-8.234-3.686-8.234-8.234s3.686-8.234 8.234-8.234h9.386c4.547 0 8.234 3.686 8.234 8.234-.001 4.549-3.687 8.234-8.234 8.234z" fill="#3c58a0"/></g></g></svg>